<svg width="118" height="30" viewBox="0 0 118 30" fill="none" xmlns="http://www.w3.org/2000/svg">
<g id="Group_2">
<path id="Vector" d="M93 -6.10352e-05C98.4839 2.06789 103.299 4.99549 108.312 7.99994C109.71 8.81978 109.71 8.81978 111.135 9.65619C112.015 10.1821 112.894 10.7081 113.801 11.2499C114.607 11.7295 115.413 12.209 116.243 12.7031C116.823 13.131 117.403 13.559 118 13.9999C118 14.6599 118 15.3199 118 15.9999C115.813 17.5121 115.813 17.5121 112.785 19.2578C111.707 19.8829 110.629 20.5081 109.518 21.1523C108.377 21.8033 107.237 22.4542 106.062 23.1249C104.358 24.113 104.358 24.113 102.619 25.121C94.1593 29.9999 94.1593 29.9999 93 29.9999C93 26.6999 93 23.3999 93 19.9999C91.8791 20.0066 90.7583 20.0133 89.6034 20.0201C79.0529 20.0809 68.5025 20.1259 57.9518 20.1554C52.5273 20.171 47.1029 20.1923 41.6785 20.2263C36.446 20.2588 31.2136 20.2768 25.981 20.2846C23.9823 20.2901 21.9835 20.301 19.9848 20.3171C17.1905 20.3388 14.3967 20.3419 11.6023 20.3405C10.7715 20.3513 9.94074 20.3621 9.08478 20.3732C3.45136 20.3427 3.45136 20.3427 1.25219 18.6727C4.88758e-06 16.9999 2.05636e-06 16.9999 0.187502 13.8749C0.455627 12.9262 0.723752 11.9774 1 10.9999C4.2734 9.36324 7.89221 9.87092 11.4888 9.88641C12.8059 9.88619 12.8059 9.88619 14.1497 9.88597C17.0608 9.88667 19.9718 9.89446 22.8828 9.90228C24.8978 9.90415 26.9127 9.90557 28.9277 9.90657C34.2378 9.91039 39.5478 9.92022 44.8579 9.93127C50.2738 9.94149 55.6896 9.94607 61.1055 9.95111C71.737 9.96184 82.3685 9.97892 93 9.99994C93 6.69994 93 3.39994 93 -6.10352e-05Z" fill="#304A9A"/>
<path id="Vector_2" d="M93 -6.10352e-05C98.4839 2.06789 103.299 4.99549 108.312 7.99994C109.71 8.81978 109.71 8.81978 111.135 9.65619C112.015 10.1821 112.894 10.7081 113.801 11.2499C114.607 11.7295 115.413 12.209 116.243 12.7031C116.823 13.131 117.403 13.559 118 13.9999C118 14.6599 118 15.3199 118 15.9999C115.813 17.5121 115.813 17.5121 112.785 19.2578C111.707 19.8829 110.629 20.5081 109.518 21.1523C108.377 21.8033 107.237 22.4542 106.062 23.1249C104.358 24.113 104.358 24.113 102.619 25.121C94.1593 29.9999 94.1593 29.9999 93 29.9999C93 26.6999 93 23.3999 93 19.9999C91.8791 20.0066 90.7583 20.0133 89.6034 20.0201C79.0529 20.0809 68.5025 20.1259 57.9518 20.1554C52.5273 20.171 47.1029 20.1923 41.6785 20.2263C36.446 20.2588 31.2136 20.2768 25.981 20.2846C23.9823 20.2901 21.9835 20.301 19.9848 20.3171C17.1905 20.3388 14.3967 20.3419 11.6023 20.3405C10.7715 20.3513 9.94074 20.3621 9.08478 20.3732C3.45136 20.3427 3.45136 20.3427 1.25219 18.6727C4.88758e-06 16.9999 2.05636e-06 16.9999 0.187502 13.8749C0.455627 12.9262 0.723752 11.9774 1 10.9999C4.2734 9.36324 7.89221 9.87092 11.4888 9.88641C12.8059 9.88619 12.8059 9.88619 14.1497 9.88597C17.0608 9.88667 19.9718 9.89446 22.8828 9.90228C24.8978 9.90415 26.9127 9.90557 28.9277 9.90657C34.2378 9.91039 39.5478 9.92022 44.8579 9.93127C50.2738 9.94149 55.6896 9.94607 61.1055 9.95111C71.737 9.96184 82.3685 9.97892 93 9.99994C93 6.69994 93 3.39994 93 -6.10352e-05Z" fill="#304A9A"/>
</g>
</svg>
