<svg width="29" height="119" viewBox="0 0 29 119" fill="none" xmlns="http://www.w3.org/2000/svg">
<g id="Group_1">
<path id="Vector" d="M14.5625 0.9375C15.6968 0.958125 16.8312 0.97875 18 1C19.6477 4.29548 19.1289 7.95907 19.1135 11.5806C19.1136 12.4684 19.1138 13.3563 19.1139 14.2711C19.1132 17.2146 19.1055 20.1581 19.0976 23.1016C19.0958 25.1389 19.0943 27.1763 19.0933 29.2137C19.0895 34.583 19.0797 39.9522 19.0686 45.3215C19.0584 50.7976 19.0538 56.2738 19.0488 61.75C19.0381 72.5 19.021 83.25 19 94C22.3 94 25.6 94 29 94C24.8624 102.676 20.0113 110.812 15 119C12.4137 116.651 10.8031 114.179 9.082 111.148C8.55026 110.215 8.01852 109.282 7.47067 108.32C6.92347 107.348 6.37626 106.376 5.81247 105.375C5.25366 104.395 4.69485 103.416 4.11911 102.406C-3.05176e-05 95.1437 -3.05176e-05 95.1437 -3.05176e-05 94C3.29997 94 6.59997 94 9.99997 94C9.99775 92.8496 9.99553 91.6993 9.99324 90.5141C9.97301 79.698 9.958 68.8819 9.94816 58.0659C9.94293 52.5046 9.93583 46.9433 9.92453 41.3821C9.9137 36.0199 9.90769 30.6578 9.90509 25.2956C9.90324 23.245 9.89962 21.1944 9.89424 19.1438C9.88703 16.2821 9.88598 13.4205 9.88644 10.5588C9.88285 9.70217 9.87925 8.84549 9.87555 7.96286C9.88786 1.01951 9.88786 1.01951 14.5625 0.9375Z" fill="#244094"/>
<path id="Vector_2" d="M14.5625 0.9375C15.6968 0.958125 16.8312 0.97875 18 1C19.6477 4.29548 19.1289 7.95907 19.1135 11.5806C19.1136 12.4684 19.1138 13.3563 19.1139 14.2711C19.1132 17.2146 19.1055 20.1581 19.0976 23.1016C19.0958 25.1389 19.0943 27.1763 19.0933 29.2137C19.0895 34.583 19.0797 39.9522 19.0686 45.3215C19.0584 50.7976 19.0538 56.2738 19.0488 61.75C19.0381 72.5 19.021 83.25 19 94C22.3 94 25.6 94 29 94C24.8624 102.676 20.0113 110.812 15 119C12.4137 116.651 10.8031 114.179 9.082 111.148C8.55026 110.215 8.01852 109.282 7.47067 108.32C6.92347 107.348 6.37626 106.376 5.81247 105.375C5.25366 104.395 4.69485 103.416 4.11911 102.406C-3.05176e-05 95.1437 -3.05176e-05 95.1437 -3.05176e-05 94C3.29997 94 6.59997 94 9.99997 94C9.99775 92.8496 9.99553 91.6993 9.99324 90.5141C9.97301 79.698 9.958 68.8819 9.94816 58.0659C9.94293 52.5046 9.93583 46.9433 9.92453 41.3821C9.9137 36.0199 9.90769 30.6578 9.90509 25.2956C9.90324 23.245 9.89962 21.1944 9.89424 19.1438C9.88703 16.2821 9.88598 13.4205 9.88644 10.5588C9.88285 9.70217 9.87925 8.84549 9.87555 7.96286C9.88786 1.01951 9.88786 1.01951 14.5625 0.9375Z" fill="#244094"/>
</g>
</svg>
